<?xml version="1.0" encoding="UTF-8"?>
<svg version="1.1" xmlns="http://www.w3.org/2000/svg" width="512" height="512">
<path d="M0 0 C2.48884242 0.70242131 4.97448077 1.41628021 7.45703125 2.140625 C8.71451172 2.48867188 9.97199219 2.83671875 11.26757812 3.1953125 C12.47865234 3.54335938 13.68972656 3.89140625 14.9375 4.25 C16.03344482 4.56420898 17.12938965 4.87841797 18.25854492 5.20214844 C21.55372937 6.5028018 23.73825957 7.91750025 26.26953125 10.390625 C27.2628248 17.25269112 25.07674076 23.30017083 23.08203125 29.828125 C14.09016466 60.59998628 8.87803872 93.30188796 12.26953125 125.390625 C18.67981807 120.61381311 18.67981807 120.61381311 21.64453125 113.578125 C21.31539519 110.48424603 20.80496186 107.45511081 20.26953125 104.390625 C18.87463058 83.78294146 24.38570391 60.84876241 38.09375 45.046875 C47.59295746 34.46701236 47.59295746 34.46701236 52.14453125 33.953125 C55.32738963 34.05672618 56.04378496 34.20148622 58.58203125 36.328125 C60.71926514 40.20680873 62.04866605 44.14534375 63.26953125 48.390625 C64.26919922 47.23046875 64.26919922 47.23046875 65.2890625 46.046875 C74.02225124 36.09900965 83.91444878 26.27333297 97.53125 24.015625 C100.74798111 23.82535625 102.77910115 24.02506456 105.38671875 25.96875 C107.82425814 29.10417412 108.29957919 31.75288388 109.01953125 35.640625 C109.261875 36.90390625 109.50421875 38.1671875 109.75390625 39.46875 C110.00914062 40.91507813 110.00914062 40.91507813 110.26953125 42.390625 C110.98753906 42.101875 111.70554687 41.813125 112.4453125 41.515625 C119.57519767 38.95845572 125.78796922 38.0040599 133.33203125 38.015625 C134.15292236 38.01433594 134.97381348 38.01304688 135.81958008 38.01171875 C139.83380738 38.08480285 142.80448962 38.15586054 146.26953125 40.390625 C149.47817538 48.03913717 147.06137355 53.9618968 144.26953125 61.390625 C141.75401986 66.76140516 138.90799571 71.70488739 135.26953125 76.390625 C136.02878906 76.50019531 136.78804688 76.60976562 137.5703125 76.72265625 C138.56417969 76.88121094 139.55804688 77.03976563 140.58203125 77.203125 C142.06123047 77.42935547 142.06123047 77.42935547 143.5703125 77.66015625 C146.44886839 78.43915763 147.54959547 78.98952653 149.26953125 81.390625 C149.98884108 85.56262199 150.09285091 87.91839607 148.015625 91.6328125 C146.22521463 94.03387328 144.32307959 96.21064551 142.26953125 98.390625 C141.64046875 99.07253906 141.01140625 99.75445312 140.36328125 100.45703125 C134.81543269 105.90885936 123.43213293 114.390625 115.26953125 114.390625 C116.44515625 115.5353125 116.44515625 115.5353125 117.64453125 116.703125 C122.23286764 121.40070749 122.23286764 121.40070749 122.39453125 125.765625 C121.11792091 129.87914721 119.75655242 131.11919087 116.0078125 133.13671875 C94.48390617 142.99288698 71.90595998 147.07390074 48.9296875 139.25390625 C43.53865131 137.09885143 38.67737806 134.64549525 33.98828125 131.2109375 C32.29262831 130.23697037 32.29262831 130.23697037 30.31640625 130.47265625 C27.47875704 131.74526611 26.01755492 133.58879699 24.01953125 135.953125 C23.313125 136.77941406 22.60671875 137.60570312 21.87890625 138.45703125 C21.08226562 139.41416016 21.08226562 139.41416016 20.26953125 140.390625 C21.25953125 141.133125 21.25953125 141.133125 22.26953125 141.890625 C24.76313193 143.96862557 27.12165781 146.07782892 29.45703125 148.328125 C30.46830078 149.30072266 30.46830078 149.30072266 31.5 150.29296875 C33.41076142 152.55804355 34.32290629 154.59929499 35.26953125 157.390625 C36.213125 156.88402344 36.213125 156.88402344 37.17578125 156.3671875 C48.46255494 150.48582651 59.9053929 148.15318118 72.51953125 151.515625 C83.88514314 155.52153739 92.93841259 162.54894692 98.64453125 173.203125 C101.27114614 178.80609426 102.56979813 184.26192805 103.26953125 190.390625 C104.29691406 190.53757813 105.32429688 190.68453125 106.3828125 190.8359375 C119.91228255 192.94812634 130.54418107 197.2717449 139.26953125 208.390625 C146.54994104 220.24863151 149.11484442 231.76156311 146.14453125 245.453125 C142.72833325 257.77697947 135.08625291 266.76839676 124.11328125 273.1015625 C119.05319097 275.39528474 113.71589431 276.41745041 108.26953125 277.390625 C108.26953125 279.81527234 108.97560505 280.84137875 110.14453125 282.953125 C115.27757216 293.09179091 115.68971726 304.20427331 112.64453125 315.078125 C108.67562583 326.66677567 101.36055641 335.27405123 90.58203125 341.203125 C84.45394238 344.06870842 77.89393965 345.21655838 71.26953125 346.390625 C71.54667969 346.99390625 71.82382812 347.5971875 72.109375 348.21875 C72.47160156 349.01796875 72.83382812 349.8171875 73.20703125 350.640625 C73.56667969 351.42953125 73.92632812 352.2184375 74.296875 353.03125 C78.35380622 362.87215946 77.40059907 375.98185981 73.59375 385.74609375 C68.60405598 395.71076293 59.82725708 404.51227674 49.26953125 408.390625 C45.29686485 409.52567254 41.3042245 410.50299248 37.26953125 411.390625 C37.74390625 412.6075 38.21828125 413.824375 38.70703125 415.078125 C43.19666063 426.59500037 41.92038352 438.11846592 37.26953125 449.390625 C32.04009803 459.72233197 23.07050744 467.35044084 12.26953125 471.390625 C0.62881776 474.86028625 -11.86973547 473.86231863 -22.73046875 468.390625 C-33.22932441 461.70651942 -40.47821976 452.50614433 -44.04296875 440.515625 C-46.07032671 430.82719321 -45.18642976 420.30254702 -40.73046875 411.390625 C-41.48070312 411.23207031 -42.2309375 411.07351563 -43.00390625 410.91015625 C-55.87869914 407.97522235 -65.60098818 403.25620787 -73.296875 392.125 C-74.58602795 389.92381944 -75.68608122 387.71694703 -76.73046875 385.390625 C-77.04886719 384.7409375 -77.36726563 384.09125 -77.6953125 383.421875 C-81.52247765 374.25078799 -81.13441038 362.2091622 -77.79296875 352.953125 C-76.84132967 350.71899025 -75.81593067 348.56154884 -74.73046875 346.390625 C-75.6946875 346.22046875 -76.65890625 346.0503125 -77.65234375 345.875 C-78.915625 345.63265625 -80.17890625 345.3903125 -81.48046875 345.140625 C-82.7334375 344.90859375 -83.98640625 344.6765625 -85.27734375 344.4375 C-88.94345052 343.32605587 -90.43662638 342.40972636 -92.73046875 339.390625 C-92.97796875 338.2975 -93.22546875 337.204375 -93.48046875 336.078125 C-95.00984373 331.5664688 -97.11598971 329.88220823 -100.7578125 326.96875 C-102.73046875 325.390625 -102.73046875 325.390625 -104.265625 323.7109375 C-105.83944455 322.03285604 -105.83944455 322.03285604 -109.23046875 322.015625 C-112.73046875 321.390625 -112.73046875 321.390625 -114.54296875 319.328125 C-119.11222861 308.02521903 -118.89972044 296.81681687 -114.73046875 285.390625 C-113.51112981 282.63290862 -112.17989589 280.03957805 -110.73046875 277.390625 C-111.71273437 277.27847656 -111.71273437 277.27847656 -112.71484375 277.1640625 C-125.02227875 275.39095746 -134.9614922 270.20568845 -142.73046875 260.390625 C-150.16415301 249.16815974 -152.61917941 237.99986694 -150.23046875 224.58203125 C-147.15937778 213.39697834 -141.03606372 204.03168374 -131.203125 197.77734375 C-123.5342383 193.47646732 -116.2156302 191.2314474 -107.41796875 191.328125 C-106.34933594 191.33714844 -105.28070313 191.34617188 -104.1796875 191.35546875 C-103.37144531 191.36707031 -102.56320313 191.37867188 -101.73046875 191.390625 C-101.58351562 190.44703125 -101.4365625 189.5034375 -101.28515625 188.53125 C-98.97966965 175.33432673 -94.63431882 162.88363195 -83.37890625 154.67578125 C-75.11129043 149.44133098 -67.20803038 146.83222273 -57.41796875 146.953125 C-56.59707764 146.95634766 -55.77618652 146.95957031 -54.93041992 146.96289062 C-47.95585411 147.12160561 -42.13144002 148.52871369 -35.73046875 151.390625 C-35.24835938 150.8853125 -34.76625 150.38 -34.26953125 149.859375 C-33.32207031 148.88484375 -33.32207031 148.88484375 -32.35546875 147.890625 C-31.72898437 147.2409375 -31.1025 146.59125 -30.45703125 145.921875 C-28.73046875 144.390625 -28.73046875 144.390625 -26.73046875 144.390625 C-26.88644531 143.10027344 -27.04242188 141.80992187 -27.203125 140.48046875 C-27.40020309 138.76307396 -27.59679175 137.04562296 -27.79296875 135.328125 C-27.89673828 134.48056641 -28.00050781 133.63300781 -28.10742188 132.75976562 C-29.44570153 120.80754391 -29.44570153 120.80754391 -26.35546875 116.453125 C-24.73046875 115.390625 -24.73046875 115.390625 -21.73046875 115.390625 C-22.06046875 112.090625 -22.39046875 108.790625 -22.73046875 105.390625 C-23.51421875 105.101875 -24.29796875 104.813125 -25.10546875 104.515625 C-27.73046875 103.390625 -27.73046875 103.390625 -29.73046875 101.390625 C-30.22869242 98.28853757 -30.14708234 95.15322865 -30.16796875 92.015625 C-30.20083984 91.15195313 -30.23371094 90.28828125 -30.26757812 89.3984375 C-30.3216244 83.03080332 -30.3216244 83.03080332 -27.328125 79.7890625 C-24.73046875 78.390625 -24.73046875 78.390625 -22.73046875 78.390625 C-22.73046875 75.750625 -22.73046875 73.110625 -22.73046875 70.390625 C-23.53484375 70.101875 -24.33921875 69.813125 -25.16796875 69.515625 C-27.73046875 68.390625 -27.73046875 68.390625 -28.73046875 66.390625 C-30.39506651 48.48937698 -26.07543911 29.76291993 -21.73046875 12.515625 C-21.49376465 11.55333984 -21.25706055 10.59105469 -21.01318359 9.59960938 C-17.68674196 -2.87623815 -11.58608802 -2.97120139 0 0 Z " fill="#1F0C31" transform="translate(257.73046875,20.609375)"/>
<path d="M0 0 C-0.02094727 0.58491211 -0.04189453 1.16982422 -0.06347656 1.77246094 C-0.14680115 4.43146465 -0.19870897 7.09019355 -0.25 9.75 C-0.28351563 10.67039062 -0.31703125 11.59078125 -0.3515625 12.5390625 C-0.50004344 17.92797713 -0.50004344 17.92797713 1.84375 22.6328125 C3.96239415 24.22636362 3.96239415 24.22636362 6.75 24.125 C10.46356608 22.83953482 12.75043139 20.98105065 15.796875 18.5625 C21.87826598 14.24945675 28.66657761 12.54321647 36 12 C33.32748839 20.8779532 28.30168386 28.31882484 21.48046875 34.5625 C19.75964555 36.13245435 19.75964555 36.13245435 18 39 C18.13934163 42.34419909 18.22954449 44.28009473 20.7265625 46.61328125 C23.27643447 48.16861553 25.31600564 48.68563254 28.25 49.1875 C29.58804688 49.42533203 29.58804688 49.42533203 30.953125 49.66796875 C31.62859375 49.77753906 32.3040625 49.88710937 33 50 C25.31225163 58.3061413 15.11703425 61.41761149 4.29370117 63.53149414 C1.2152461 64.18219639 -0.69268809 64.69453197 -2.953125 66.94140625 C-4.19560001 69.03370257 -4.19560001 69.03370257 -4.125 71.8125 C-2.53026919 76.33090396 0.46103511 78.87684038 4 82 C3 84 3 84 1.14453125 84.81640625 C0.37496094 85.06261719 -0.39460938 85.30882812 -1.1875 85.5625 C-1.94417969 85.81128906 -2.70085937 86.06007813 -3.48046875 86.31640625 C-19.14685473 90.56697609 -36.09861208 88.97302579 -50.3125 81.25 C-51.54936563 80.51276591 -52.78197123 79.76795612 -54 79 C-54 78.34 -54 77.68 -54 77 C-52.35449219 75.52294922 -52.35449219 75.52294922 -50.046875 73.8046875 C-49.20495605 73.1746582 -48.36303711 72.54462891 -47.49560547 71.89550781 C-46.58955566 71.22874023 -45.68350586 70.56197266 -44.75 69.875 C-43.38512451 68.85937988 -43.38512451 68.85937988 -41.99267578 67.82324219 C-36.15886391 63.50872767 -30.26058761 59.37917974 -24.1171875 55.515625 C-21.75209113 54.01128533 -21.75209113 54.01128533 -20 51 C-19.5 48.5 -19.5 48.5 -20 46 C-21.47959573 43.95173938 -21.47959573 43.95173938 -24 43 C-30.52874145 43.17095208 -34.27613264 45.8004629 -39.3125 49.5625 C-40.42637085 50.37025879 -40.42637085 50.37025879 -41.56274414 51.19433594 C-46.5805613 54.85975219 -51.465424 58.66378835 -56.21484375 62.671875 C-58 64 -58 64 -60 64 C-60.70582591 46.8837217 -58.4903941 32.70900988 -49 18 C-47.28515625 16.140625 -47.28515625 16.140625 -46 15 C-45.60167969 16.04800781 -45.20335937 17.09601563 -44.79296875 18.17578125 C-44.25822827 19.55484879 -43.72304898 20.93374623 -43.1875 22.3125 C-42.79594727 23.34793945 -42.79594727 23.34793945 -42.39648438 24.40429688 C-40.6617179 29.47282195 -40.6617179 29.47282195 -37 33 C-33.50611521 33.27179506 -33.50611521 33.27179506 -30 32 C-28.17328633 29.80366701 -26.95787209 28.02476202 -25.625 25.5625 C-21.12972662 17.9506332 -10.12168258 0 0 0 Z " fill="#B8E242" transform="translate(353,61)"/>
<path d="M0 0 C5.54227963 3.73038052 8.11482356 8.14918404 11 14 C11.495 14.99 11.495 14.99 12 16 C12.80679819 25.22055078 12.78488397 33.35857187 7 41 C1.618233 46.97519378 -4.22509748 51.56649678 -12.46850586 52.18530273 C-15.08957201 52.18753301 -17.69405353 52.11594597 -20.3125 52 C-22.07887538 51.92347832 -23.84589743 51.86037496 -25.61328125 51.8125 C-26.77017456 51.76029297 -26.77017456 51.76029297 -27.95043945 51.70703125 C-30.53260296 52.07613145 -31.37239307 53.02392116 -33 55 C-38.169545 53.59012409 -41.75341352 50.13677955 -45 46 C-45.890625 43.9609375 -45.890625 43.9609375 -46 42 C-45.01858755 40.9817517 -44.0178756 39.98179899 -43 39 C-43.17006087 36.92525743 -43.36029682 34.85017531 -43.65234375 32.7890625 C-44.87906444 22.94773024 -45.08457835 14.23034753 -39 6 C-28.88784131 -5.16991588 -13.18927023 -8.44113295 0 0 Z " fill="#B35FE6" transform="translate(199,299)"/>
<path d="M0 0 C6.41494118 4.29691506 10.44347164 10.53353991 12.87109375 17.81640625 C13.78001817 27.6059693 12.24997783 35.71469541 6.24609375 43.62890625 C1.18333399 49.09203732 -6.24181547 52.26992645 -13.57421875 53.08984375 C-22.28166396 53.41986354 -27.7633826 50.62974371 -34.94140625 46.00390625 C-40.94097499 40.00433751 -44.13965747 32.96387781 -44.50390625 24.50390625 C-44.28453729 14.98071264 -39.86774278 8.29097468 -33.12890625 1.81640625 C-22.93677561 -6.08769506 -11.09562414 -6.16875984 0 0 Z " fill="#B35FE5" transform="translate(236.12890625,364.18359375)"/>
<path d="M0 0 C6.77979497 4.82768159 12.1218913 10.70501991 14 19 C14.94268214 28.04117873 13.27980095 35.96442552 7.75 43.3125 C1.31450266 49.60173604 -5.60673612 52.9729586 -14.625 53.5 C-22.48220547 53.35341035 -28.87174721 50.33244502 -34.9453125 45.4296875 C-40.54564625 39.6042147 -43.1206489 31.50602989 -43.625 23.5625 C-43.28926505 15.99221846 -40.11290048 9.23902167 -34.87890625 3.79296875 C-24.20707137 -4.99233726 -12.31835761 -6.86366004 0 0 Z " fill="#B25EE4" transform="translate(306,364)"/>
<path d="M0 0 C6.58596927 3.9534161 11.84754743 10.22199725 13.8046875 17.68359375 C14.72900751 27.25440098 14.23016245 35.86885578 8.26171875 43.7109375 C3.41558446 48.95629567 -3.31639079 53.26768567 -10.578125 53.88671875 C-20.00206523 54.04781175 -26.18502378 52.69303518 -33.5078125 46.55859375 C-40.32123925 39.94649687 -42.36710191 34.72797279 -42.7578125 25.24609375 C-42.47759524 16.21586662 -40.0129875 10.03474965 -33.4453125 3.80859375 C-22.86795068 -4.55444186 -12.30799427 -5.64249608 0 0 Z " fill="#B35FE6" transform="translate(270.1953125,425.31640625)"/>
<path d="M0 0 C7.23571481 5.33294187 12.20795402 12.49253811 13.6328125 21.42578125 C14.16339604 30.46928291 11.22132885 38.00880409 5.25 44.8125 C-2.36255196 51.87599851 -8.81303142 53.26509183 -19.08984375 53.01171875 C-27.88622046 52.06200512 -33.68150462 47.74007761 -39.1875 40.98828125 C-44.01669495 33.93557209 -44.96706913 26.00373468 -43.81640625 17.609375 C-41.32499293 9.83616546 -36.63416902 3.51902742 -29.63671875 -0.70703125 C-20.19128269 -5.1510315 -9.08393337 -5.31014824 0 0 Z " fill="#B35FE6" transform="translate(306.81640625,237.390625)"/>
<path d="M0 0 C6.23012247 4.74161536 9.55846884 10.67540651 12 18 C12.98847972 27.73895592 10.97745152 35.60869595 4.875 43.3125 C-1.34145958 49.77814256 -7.54892639 52.28211613 -16.5 52.625 C-25.45107361 52.28211613 -31.65854042 49.77814256 -37.875 43.3125 C-43.14292324 36.66221392 -45.87017575 29.39480256 -45.5078125 20.8671875 C-44.03246538 12.53715069 -39.65462768 5.4699059 -32.98046875 0.3359375 C-23.17480889 -6.27853128 -10.1600995 -6.16149147 0 0 Z " fill="#B35FE6" transform="translate(237,238)"/>
<path d="M0 0 C6.38949086 5.02624142 10.30356377 10.85793818 11.359375 18.99609375 C11.69164397 28.8676978 10.01277403 36.56880248 3.29296875 43.96875 C-3.82618584 50.44547627 -11.37636809 52.37527341 -20.90234375 52.0390625 C-29.24024935 50.87134599 -36.01219141 46.21009271 -41.08203125 39.59375 C-46.05399795 32.33497369 -46.10953786 24.11387122 -45.08203125 15.59375 C-42.71720605 7.38769759 -37.47388479 1.86862851 -30.28125 -2.5 C-20.85944342 -6.85783773 -8.48963068 -5.73408451 0 0 Z " fill="#B35FE6" transform="translate(346.08203125,299.40625)"/>
<path d="M0 0 C6.38949086 5.02624142 10.30356377 10.85793818 11.359375 18.99609375 C11.69164397 28.8676978 10.01277403 36.56880248 3.29296875 43.96875 C-3.82618584 50.44547627 -11.37636809 52.37527341 -20.90234375 52.0390625 C-28.37763761 50.99215402 -34.56960263 47.13802716 -39.609375 41.5859375 C-45.38066929 33.77861632 -46.3117482 25.07236471 -45.08203125 15.59375 C-42.66124105 7.39429932 -37.48925347 1.87796306 -30.28125 -2.5 C-20.85944342 -6.85783773 -8.48963068 -5.73408451 0 0 Z " fill="#B35FE6" transform="translate(273.08203125,303.40625)"/>
<path d="M0 0 C5.95050067 3.54625798 11.56663654 9.14601185 14 15.76171875 C15.78209606 24.87904947 15.47870304 34.06136133 10.4375 42 C9.7775 43.051875 9.1175 44.10375 8.4375 45.1875 C3.60740527 50.42866662 -3.15669989 53.47054265 -10.10546875 54.55078125 C-19.9815887 54.92773239 -27.09224455 52.36577231 -34.4375 45.8125 C-40.4288425 39.24043636 -42.26850622 31.7166727 -41.953125 22.96484375 C-41.06851333 16.25064116 -38.45781203 9.7630063 -33.5625 5 C-23.78913843 -2.25005731 -11.61332938 -5.34069777 0 0 Z " fill="#B35FE6" transform="translate(375.5625,229)"/>
<path d="M0 0 C6.84868058 4.65242438 12.17525223 10.90075669 14.8125 18.8125 C15.75658576 29.18395647 14.65871905 36.57133948 8.23828125 44.83984375 C3.1572179 50.44204181 -2.21193099 53.30563699 -9.7109375 54.26171875 C-18.57716021 54.6663638 -25.1875343 53.43316212 -32.1875 47.8125 C-38.59969477 41.30754292 -41.46921988 35.15101572 -41.5 25.9375 C-41.32970706 16.93089587 -39.4995988 11.22649708 -33.2421875 4.64453125 C-24.44463342 -3.19967571 -10.7078591 -5.64042745 0 0 Z " fill="#B35FE6" transform="translate(163.1875,229.1875)"/>
<path d="M0 0 C6.26314302 3.66121332 11.87025907 8.66375491 14.90234375 15.37109375 C16.7277936 22.46766506 17.05194219 31.84553652 13.875 38.5625 C12.76171875 40.3359375 12.76171875 40.3359375 11.5625 41.9375 C10.98435547 42.76121094 10.98435547 42.76121094 10.39453125 43.6015625 C6.19444018 49.12012876 1.14767865 52.09648231 -5.4375 53.9375 C-13.78231953 54.71925869 -21.47217094 55.00319386 -28.4375 49.9375 C-29.489375 49.215625 -30.54125 48.49375 -31.625 47.75 C-35.16673521 44.20826479 -37.23766562 40.39851872 -39.4375 35.9375 C-39.7675 35.2775 -40.0975 34.6175 -40.4375 33.9375 C-41.28081331 23.65184261 -40.03544617 16.02633198 -34.8125 7.1875 C-25.4296145 -1.70154942 -12.1891291 -5.71951443 0 0 Z " fill="#B35FE6" transform="translate(268.4375,173.0625)"/>
<path d="M0 0 C1.52157311 0.28778244 3.04222053 0.58046001 4.5625 0.875 C5.40941406 1.03742187 6.25632812 1.19984375 7.12890625 1.3671875 C10.46539036 2.10257583 13.72305299 3.03595378 17 4 C16.61094669 5.65836689 16.22171584 7.31669225 15.83178711 8.97485352 C15.47819361 10.48149099 15.12620575 11.98850598 14.77563477 13.49584961 C13.80252084 17.66303225 12.79780499 21.81782157 11.7265625 25.9609375 C8.35151836 39.19913602 6.34902609 52.40973248 5 66 C4.91585342 66.79652481 4.83170685 67.59304962 4.74501038 68.41371155 C4.09339585 74.93611087 3.86588491 81.36587041 3.90234375 87.91796875 C3.90446617 89.39285515 3.90446617 89.39285515 3.90663147 90.89753723 C3.91216537 93.99422433 3.92470486 97.09083528 3.9375 100.1875 C3.94252356 102.30533749 3.94708496 104.42317612 3.95117188 106.54101562 C3.96211302 111.69403912 3.97933079 116.84700671 4 122 C-0.95 122.495 -0.95 122.495 -6 123 C-6.09796875 121.81921875 -6.1959375 120.6384375 -6.296875 119.421875 C-6.44698409 117.86449316 -6.59807747 116.30720598 -6.75 114.75 C-6.8428125 113.58404297 -6.8428125 113.58404297 -6.9375 112.39453125 C-7.31867441 108.67808076 -7.58674164 106.54304197 -9.890625 103.515625 C-12.01732873 101.82935809 -12.01732873 101.82935809 -15 101 C-15.33 97.7 -15.66 94.4 -16 91 C-16.78375 90.71125 -17.5675 90.4225 -18.375 90.125 C-21 89 -21 89 -23 87 C-23.49822367 83.89791257 -23.41661359 80.76260365 -23.4375 77.625 C-23.47037109 76.76132813 -23.50324219 75.89765625 -23.53710938 75.0078125 C-23.59115565 68.64017832 -23.59115565 68.64017832 -20.59765625 65.3984375 C-18 64 -18 64 -16 64 C-16 61.36 -16 58.72 -16 56 C-15.05125 55.71125 -14.1025 55.4225 -13.125 55.125 C-9.90857021 53.39498887 -9.90857021 53.39498887 -9.30566406 50.97192383 C-9.16870117 50.16263428 -9.03173828 49.35334473 -8.890625 48.51953125 C-8.7354541 47.62202148 -8.5802832 46.72451172 -8.42041016 45.79980469 C-7.75887806 41.39420072 -7.17460315 36.9833253 -6.625 32.5625 C-5.64944658 25.05883613 -4.44690705 17.65255227 -2.875 10.25 C-2.61904053 9.04452515 -2.61904053 9.04452515 -2.35791016 7.81469727 C-1.14632823 2.29265646 -1.14632823 2.29265646 0 0 Z " fill="#643225" transform="translate(251,35)"/>
<path d="M0 0 C6.92772123 5.47562246 12.4713966 12.68310818 13.5390625 21.6640625 C13.5234375 24.0859375 13.5234375 24.0859375 12.7890625 26.4140625 C10.27279059 28.53207554 7.63892446 29.99697744 4.76171875 31.5859375 C-0.77584292 34.99142878 -4.63925277 40.0565354 -8.2109375 45.4140625 C-8.8709375 45.4140625 -9.5309375 45.4140625 -10.2109375 45.4140625 C-11.34288183 44.24781683 -12.47462985 43.08138007 -13.60546875 41.9140625 C-21.20605163 34.81278798 -30.01381055 31.49886324 -40.2109375 30.4140625 C-38.87760417 26.4140625 -37.54427083 22.4140625 -36.2109375 18.4140625 C-36.2109375 17.30417969 -36.2109375 16.19429687 -36.2109375 15.05078125 C-36.2109375 4.60067508 -36.2109375 4.60067508 -33.28515625 1.12890625 C-23.77661712 -5.20493242 -9.69340453 -6.49857457 0 0 Z " fill="#9349CB" transform="translate(333.2109375,189.5859375)"/>
<path d="M0 0 C1.20431441 4.6319785 0.99621254 9.01440212 0.875 13.75 C0.77177421 20.50925171 1.34684835 25.69876484 4 32 C4 32.99 4 33.98 4 35 C3.17757812 35.14695313 2.35515625 35.29390625 1.5078125 35.4453125 C-8.48979535 37.45406974 -16.38799912 41.12464437 -24 48 C-24.33 48.66 -24.66 49.32 -25 50 C-28.42024202 48.85991933 -28.79913481 48.18947816 -30.75 45.3125 C-33.33173745 41.70194988 -36.07509646 39.02602944 -39.58203125 36.32421875 C-41.74989255 34.29968712 -41.97856459 32.27453811 -42.203125 29.3984375 C-42.36646177 18.86321581 -40.79605799 11.77842617 -33.36328125 4.01953125 C-23.27070516 -4.60503377 -11.86096393 -4.92010355 0 0 Z " fill="#9349CB" transform="translate(214,185)"/>
<path d="M0 0 C2.86892987 2.2313899 4.84884277 4.54652831 6 8 C6.76047746 15.60477461 4.65470957 20.46038724 0.125 26.5 C-2.80263608 28.56656665 -4.49284198 28.58452634 -8 28 C-10.375 26.375 -10.375 26.375 -12 24 C-12.4375 21 -12.4375 21 -12 18 C-11.484375 17.38125 -10.96875 16.7625 -10.4375 16.125 C-8.76064506 14.09081758 -8.76064506 14.09081758 -9.06640625 11.5625 C-9.31197266 10.2940625 -9.31197266 10.2940625 -9.5625 9 C-10.18496744 4.3107453 -10.18496744 4.3107453 -8.4375 1.375 C-5.29629411 -0.3969623 -3.55547488 -0.59257915 0 0 Z " fill="#220E35" transform="translate(304,376)"/>
<path d="M0 0 C3.3125 1.4375 3.3125 1.4375 5.3125 4.4375 C5.73411515 7.42365954 5.63684284 10.42468255 5.625 13.4375 C5.64111328 14.25734375 5.65722656 15.0771875 5.67382812 15.921875 C5.67447266 16.71078125 5.67511719 17.4996875 5.67578125 18.3125 C5.68025269 19.39144531 5.68025269 19.39144531 5.68481445 20.4921875 C5.20251208 23.01217785 4.30952625 23.86977408 2.3125 25.4375 C-0.5625 26.375 -0.5625 26.375 -3.6875 26.4375 C-6.34375 25.03515625 -6.34375 25.03515625 -8.6875 22.4375 C-9.43455637 19.25777023 -9.38609192 16.19026267 -9.3125 12.9375 C-9.33183594 12.08285156 -9.35117188 11.22820312 -9.37109375 10.34765625 C-9.33763569 6.05833253 -9.28347479 4.11616503 -6.37890625 0.80859375 C-3.6875 -0.5625 -3.6875 -0.5625 0 0 Z " fill="#1E0C30" transform="translate(236.6875,99.5625)"/>
</svg>
